<svg xmlns="http://www.w3.org/2000/svg" width="449" height="336" viewBox="0 0 449 336">
  <path fill="#ffbe2e" d="M420,196 L28,196 C12.32,196 0,183.68 0,168 C0,152.32 12.32,140 28,140 L420,140 C435.68,140 448,152.32 448,168 C448,183.68 435.68,196 420,196 Z M420,56 L28,56 C12.32,56 0,43.68 0,28 C0,12.32 12.32,0 28,0 L420,0 C435.68,0 448,12.32 448,28 C448,43.68 435.68,56 420,56 Z M28,280 L420,280 C435.68,280 448,292.32 448,308 C448,323.68 435.68,336 420,336 L28,336 C12.32,336 0,323.68 0,308 C0,292.32 12.32,280 28,280 Z" transform="translate(.269)"/>
</svg>
